<?xml version="1.0" standalone="no"?>
<!DOCTYPE svg PUBLIC "-//W3C//DTD SVG 20010904//EN"
 "http://www.w3.org/TR/2001/REC-SVG-20010904/DTD/svg10.dtd">
<svg version="1.0" xmlns="http://www.w3.org/2000/svg"
 width="1280.000000pt" height="1143.000000pt" viewBox="0 0 1280.000000 1143.000000"
 preserveAspectRatio="xMidYMid meet">
<metadata>
Created by potrace 1.15, written by Peter Selinger 2001-2017
</metadata>
<g transform="translate(0.000000,1143.000000) scale(0.100000,-0.100000)"
fill="#000000" stroke="none">
<path d="M3241 11384 c-60 -61 -161 -107 -321 -149 -362 -96 -408 -124 -578
-362 -105 -147 -170 -217 -232 -252 l-43 -24 5 39 c3 22 33 96 67 164 107 218
113 314 34 512 l-37 92 -22 -72 c-28 -94 -51 -127 -179 -262 -127 -135 -157
-177 -186 -261 -20 -60 -21 -74 -13 -209 17 -314 10 -376 -57 -481 -55 -87
-130 -84 -170 5 -38 87 -44 361 -13 651 l6 60 -49 -65 c-291 -384 -351 -609
-267 -1005 27 -125 37 -197 38 -272 1 -95 -1 -105 -29 -157 -16 -31 -33 -56
-37 -56 -12 0 -27 62 -38 158 -13 117 -24 148 -94 270 -31 54 -56 101 -56 104
0 4 -4 18 -10 32 -15 39 -40 23 -40 -25 0 -44 -27 -103 -94 -207 -76 -117 -90
-173 -90 -347 0 -138 3 -159 33 -270 82 -300 83 -312 17 -463 -48 -110 -50
-113 -63 -89 -8 15 -17 91 -23 187 -5 88 -14 178 -20 199 -19 73 -66 112 -147
126 l-43 7 16 -38 c23 -55 12 -102 -56 -229 -82 -153 -103 -237 -98 -379 5
-135 22 -188 100 -311 84 -134 86 -148 50 -284 -17 -62 -33 -116 -36 -118 -3
-3 -21 5 -40 17 -89 55 -188 228 -211 370 -13 78 -19 79 -58 8 -65 -116 -71
-139 -71 -293 -1 -125 2 -149 26 -225 26 -81 68 -173 158 -340 43 -81 63 -156
58 -221 l-3 -42 -34 34 c-45 46 -78 119 -92 206 -6 40 -16 73 -20 73 -25 0
-102 -46 -128 -76 -62 -70 -65 -180 -11 -344 17 -52 93 -223 170 -380 128
-264 139 -290 145 -358 l7 -74 -22 12 c-34 18 -107 96 -135 144 -13 23 -31 66
-38 96 -18 69 -39 76 -67 21 -52 -103 -64 -243 -30 -352 27 -90 98 -191 245
-354 70 -77 144 -166 165 -197 35 -53 98 -213 88 -224 -12 -11 -60 43 -128
141 -90 130 -143 173 -233 190 -34 7 -37 5 -37 -17 0 -16 10 -30 29 -41 44
-26 77 -105 101 -239 24 -137 54 -228 110 -340 78 -155 133 -218 355 -405 142
-119 196 -175 234 -245 l32 -56 -115 34 c-160 47 -219 70 -275 109 -35 23 -52
30 -60 22 -17 -17 -14 -34 28 -122 91 -195 178 -277 451 -425 63 -35 140 -79
170 -99 55 -36 335 -302 371 -353 l20 -27 -43 14 c-24 7 -79 26 -123 40 -69
23 -100 27 -222 30 -135 3 -143 2 -143 -15 0 -14 10 -21 36 -26 52 -10 87 -44
141 -141 62 -113 139 -190 234 -237 101 -50 187 -66 351 -66 l137 0 38 -32
c74 -63 234 -211 231 -214 -2 -1 -75 13 -163 33 -142 31 -172 34 -270 31 -94
-4 -121 -9 -185 -35 -81 -34 -80 -35 20 -53 94 -17 154 -49 299 -160 244 -187
365 -232 706 -265 93 -8 196 -22 227 -31 52 -13 184 -82 175 -90 -2 -2 -53 8
-113 22 -85 20 -151 27 -304 34 -107 5 -212 12 -232 16 -34 6 -38 4 -38 -14 0
-15 10 -22 47 -31 63 -16 104 -41 248 -151 66 -50 147 -104 180 -120 67 -33
213 -60 330 -60 39 0 77 -5 85 -10 12 -7 8 -10 -15 -10 -52 0 -225 -24 -225
-31 0 -11 152 -76 225 -95 63 -17 105 -19 415 -17 190 1 361 -1 380 -6 l35 -7
-34 -22 c-19 -12 -84 -33 -144 -47 -125 -30 -137 -34 -137 -45 0 -48 219 -78
730 -100 140 -6 287 -15 325 -20 126 -17 346 -50 530 -80 211 -35 389 -52 451
-43 24 3 44 3 44 0 0 -4 -41 -34 -90 -67 -50 -33 -168 -122 -263 -198 -94 -76
-228 -181 -297 -234 -239 -183 -372 -313 -458 -447 -37 -58 -102 -196 -102
-218 0 -20 27 -15 69 11 58 37 138 68 321 126 167 53 288 104 325 137 11 10
46 50 76 88 150 188 464 433 777 604 l112 62 95 -41 c117 -52 324 -172 420
-244 39 -30 143 -120 231 -201 267 -248 342 -295 641 -400 87 -31 203 -73 258
-95 55 -21 108 -42 118 -46 17 -6 18 -3 11 32 -32 178 -207 372 -644 715 -188
148 -341 253 -523 363 l-157 93 57 16 c32 8 108 18 168 22 61 3 234 24 385 45
401 58 422 59 805 70 346 10 487 19 638 41 70 10 77 13 77 34 0 20 -12 25
-119 54 -65 18 -133 42 -152 54 l-34 21 43 10 c29 6 126 5 291 -4 381 -20 498
-9 660 64 84 39 91 35 -94 61 -60 9 -111 18 -114 21 -2 2 37 4 88 4 50 0 135
5 189 10 116 13 195 47 317 135 153 111 224 153 280 166 39 9 55 17 55 28 0
15 -23 16 -212 13 -179 -2 -233 -7 -341 -28 -71 -14 -130 -24 -133 -22 -7 8
123 75 166 86 25 6 130 18 232 26 357 29 471 68 698 236 58 42 124 89 147 104
49 30 146 62 218 72 l50 7 -63 28 c-35 16 -82 34 -105 40 -71 19 -201 12 -367
-20 -85 -16 -156 -28 -158 -27 -1 2 57 55 131 119 l133 115 185 4 c166 4 191
7 258 31 135 48 212 115 299 259 59 99 89 128 141 135 31 4 41 10 41 24 0 18
-10 19 -151 19 -145 0 -154 -1 -256 -35 -58 -19 -110 -35 -115 -35 -19 0 27
51 158 173 176 165 212 191 405 292 273 143 363 223 450 400 27 55 49 105 49
111 0 6 -7 17 -15 24 -13 11 -19 9 -38 -8 -12 -11 -47 -32 -77 -46 -54 -25
-288 -96 -316 -96 -27 0 39 99 111 167 39 36 133 116 211 178 105 84 156 132
200 191 107 143 178 304 209 475 25 137 48 191 101 238 30 26 42 44 38 55 -8
20 -29 20 -85 1 -66 -24 -105 -59 -190 -175 -67 -92 -113 -140 -133 -140 -12
0 59 171 91 218 20 29 92 113 160 185 184 195 236 267 273 378 32 95 25 210
-21 327 -28 70 -52 71 -69 2 -15 -64 -73 -154 -135 -208 -68 -59 -73 -57 -61
30 8 58 22 97 71 193 205 397 244 479 269 558 63 198 36 316 -85 378 -58 29
-65 26 -72 -33 -7 -74 -41 -157 -83 -206 -50 -59 -58 -55 -51 26 7 85 24 129
107 268 61 103 112 220 140 319 21 79 24 234 5 310 -16 63 -82 205 -95 205 -3
0 -14 -35 -24 -77 -21 -92 -70 -199 -121 -266 -37 -48 -108 -107 -129 -107 -7
0 -24 51 -40 114 -34 140 -31 157 56 288 82 124 110 211 111 338 1 123 -18
192 -94 352 -56 116 -61 132 -57 180 2 29 8 61 12 71 8 16 4 17 -35 11 -82
-13 -123 -47 -147 -124 -7 -19 -16 -100 -22 -180 -9 -128 -21 -194 -38 -224
-3 -5 -27 47 -54 115 l-50 124 11 71 c6 39 27 124 47 190 52 173 64 236 64
357 0 156 -18 222 -96 353 -69 116 -88 168 -78 209 5 21 3 25 -14 25 -14 0
-24 -10 -31 -33 -6 -19 -32 -67 -58 -108 -73 -118 -92 -167 -108 -283 -8 -59
-22 -120 -29 -134 l-14 -27 -33 68 c-30 66 -32 73 -26 160 3 55 20 154 43 247
36 145 38 165 39 310 0 132 -3 167 -23 233 -41 141 -110 273 -249 474 l-51 73
6 -263 c5 -285 -2 -370 -40 -445 -58 -116 -151 -72 -207 97 -26 78 -27 158 -5
324 32 246 2 332 -183 530 -125 133 -151 179 -192 326 -6 19 -15 3 -51 -85
-36 -91 -44 -123 -48 -194 -5 -109 12 -176 83 -321 51 -103 70 -179 47 -179
-16 0 -86 56 -127 101 -22 24 -79 100 -125 169 -165 242 -214 275 -550 370
-173 49 -271 94 -325 149 -22 22 -48 41 -59 41 -17 0 -18 -7 -14 -94 5 -85 9
-102 48 -181 62 -130 182 -245 455 -439 116 -82 242 -175 280 -207 81 -66 138
-125 113 -116 -49 17 -107 28 -238 42 -231 26 -286 42 -382 112 l-46 33 -11
-50 c-15 -69 -14 -107 5 -171 44 -147 181 -264 389 -334 72 -25 101 -28 290
-35 188 -7 217 -10 277 -33 37 -13 84 -37 103 -52 33 -25 104 -111 105 -127 0
-3 -21 0 -47 8 -65 20 -106 18 -239 -11 -154 -33 -236 -40 -309 -25 -68 13
-166 64 -239 121 -27 22 -50 38 -52 36 -2 -1 4 -34 13 -72 54 -242 262 -491
482 -576 42 -17 78 -23 146 -23 l90 -1 128 64 c102 52 140 66 185 69 88 6 99
-2 170 -126 34 -60 62 -111 62 -113 0 -2 -39 -4 -88 -5 -57 -1 -140 -12 -242
-34 -132 -28 -176 -33 -300 -34 -160 -1 -222 13 -259 60 -18 23 -51 25 -51 4
0 -22 105 -254 147 -325 62 -107 152 -196 240 -238 64 -30 74 -32 183 -32
l115 0 130 64 c72 34 154 72 184 82 62 22 154 25 169 7 5 -7 30 -60 55 -118
l46 -105 -58 -11 c-66 -14 -129 -44 -230 -109 -247 -160 -447 -161 -623 -5
l-48 42 0 -51 c0 -28 9 -75 21 -106 44 -118 188 -294 302 -370 104 -69 181
-79 357 -45 182 35 321 21 471 -46 51 -23 60 -31 68 -63 5 -20 15 -56 21 -80
6 -23 9 -45 7 -47 -2 -2 -21 3 -43 12 -61 26 -204 29 -435 9 -171 -15 -225
-16 -294 -7 -80 10 -150 36 -188 70 -16 14 -19 14 -34 -1 -15 -15 -15 -18 -1
-34 9 -10 41 -73 71 -141 30 -67 67 -139 82 -158 49 -65 141 -120 300 -182 44
-17 145 -56 224 -87 199 -77 289 -126 370 -201 64 -59 69 -68 73 -112 3 -26 3
-49 2 -51 -2 -1 -18 8 -36 22 -120 89 -284 152 -468 178 -206 29 -268 54 -335
131 -19 23 -36 40 -38 37 -11 -14 -52 -212 -52 -250 0 -61 41 -121 178 -260
124 -127 184 -163 371 -225 207 -69 267 -104 327 -190 l30 -44 -11 -78 c-6
-42 -14 -94 -17 -114 -3 -21 -8 -38 -12 -38 -3 0 -17 16 -30 36 -34 50 -142
147 -225 201 -89 60 -159 88 -271 108 -181 33 -235 61 -285 148 -32 55 -32 55
-49 -37 -23 -123 -4 -270 50 -383 36 -75 90 -126 270 -253 214 -152 323 -275
358 -406 10 -37 7 -49 -33 -150 -40 -99 -45 -106 -51 -79 -33 146 -88 226
-191 278 -18 9 -89 33 -160 52 -70 20 -149 47 -175 60 -61 31 -113 94 -129
153 -6 26 -14 53 -16 60 -6 20 -56 -19 -98 -77 -80 -109 -129 -254 -129 -386
0 -204 95 -305 285 -305 131 0 201 -35 255 -127 52 -89 64 -192 37 -320 -13
-64 -65 -203 -76 -203 -2 0 -4 29 -5 64 -2 123 -79 238 -191 288 -65 29 -188
34 -331 14 -131 -19 -177 -12 -211 32 -18 22 -21 37 -18 95 2 55 0 70 -14 78
-19 11 -40 -20 -84 -127 -24 -59 -29 -83 -29 -164 0 -88 3 -101 33 -162 44
-91 122 -161 254 -228 128 -66 207 -140 227 -213 21 -73 10 -159 -31 -247 -31
-65 -112 -178 -129 -179 -3 -1 -4 12 -1 28 2 16 -4 45 -13 64 -16 34 -57 59
-135 82 -189 57 -301 232 -319 503 l-6 92 -62 -40 c-180 -118 -273 -323 -243
-540 23 -168 83 -283 212 -412 48 -47 92 -98 98 -113 12 -31 4 -85 -17 -130
-16 -31 -112 -135 -125 -135 -4 0 -8 12 -8 26 0 47 -39 93 -139 163 -54 38
-113 87 -131 107 -63 73 -100 186 -100 310 0 80 -9 110 -36 123 -78 35 -183
-30 -260 -162 -54 -93 -67 -144 -62 -250 4 -83 10 -105 61 -232 30 -77 66
-178 78 -225 25 -95 31 -232 11 -266 -10 -18 -90 -74 -105 -74 -3 0 -3 27 0
59 11 118 -37 220 -194 417 -45 56 -98 127 -119 158 -20 31 -38 55 -40 54 -1
-2 -41 -78 -88 -170 -140 -272 -148 -312 -131 -589 8 -133 7 -137 -17 -190
l-25 -54 -122 -48 c-68 -27 -125 -47 -127 -44 -2 2 3 35 13 73 11 46 17 111
17 194 1 129 -10 182 -56 273 -18 37 -19 37 -47 23 -64 -34 -101 -106 -190
-369 -73 -218 -78 -230 -124 -294 -26 -37 -68 -63 -102 -63 -8 0 -14 25 -18
68 -3 37 -17 99 -30 137 -28 80 -96 218 -97 195 -2 -69 -76 -177 -281 -406
-99 -111 -112 -122 -151 -128 -107 -18 -592 -87 -669 -96 -111 -13 -405 -87
-534 -136 -55 -20 -111 -37 -125 -37 -14 0 -96 21 -184 47 -240 71 -371 94
-626 111 -260 18 -454 41 -490 58 -29 14 -265 293 -332 394 -31 46 -48 82 -50
106 -1 21 -5 37 -8 37 -10 -1 -83 -146 -106 -212 -13 -38 -26 -96 -30 -128 -7
-68 -17 -73 -71 -40 -60 36 -82 85 -198 450 -47 146 -73 197 -124 243 -23 20
-44 37 -47 37 -12 0 -66 -133 -80 -201 -18 -82 -14 -197 10 -309 8 -36 12 -67
11 -68 -5 -5 -217 85 -242 103 -12 8 -29 38 -39 67 -14 43 -15 68 -8 147 14
173 11 320 -9 381 -18 54 -172 387 -187 403 -4 4 -18 -9 -32 -30 -14 -21 -71
-94 -128 -163 -57 -69 -118 -148 -136 -176 -50 -77 -76 -166 -72 -241 3 -70 4
-70 -61 -29 -96 61 -76 219 75 586 46 109 48 120 48 210 0 86 -3 101 -32 163
-68 147 -150 227 -232 227 -72 0 -78 -9 -90 -135 -6 -60 -16 -126 -22 -145
-33 -106 -97 -181 -220 -259 -79 -50 -133 -107 -143 -150 l-7 -31 -42 35 c-60
49 -96 119 -96 185 l0 53 94 91 c108 104 156 175 198 290 39 104 49 257 25
353 -35 134 -113 246 -228 324 l-56 38 -6 -83 c-16 -199 -90 -367 -195 -440
-23 -15 -87 -45 -143 -65 -116 -42 -141 -65 -143 -130 0 -23 -3 -41 -6 -41 -8
1 -96 122 -115 159 -49 98 -60 224 -25 297 30 61 96 117 202 170 174 87 248
153 300 271 42 94 22 260 -48 380 -18 31 -29 40 -43 36 -17 -4 -18 -12 -14
-62 9 -100 -31 -151 -119 -151 -16 0 -86 10 -155 22 -107 18 -137 19 -195 10
-169 -26 -274 -133 -295 -302 l-8 -65 -22 52 c-72 164 -71 359 2 472 55 87
108 111 265 121 121 8 140 12 179 42 69 52 102 141 102 267 -1 156 -61 317
-157 420 l-52 56 -12 -45 c-38 -140 -95 -184 -310 -239 -152 -39 -215 -67
-263 -115 -44 -44 -64 -79 -92 -169 -17 -52 -24 -64 -29 -50 -4 10 -23 60 -41
110 l-34 93 20 57 c44 130 135 224 364 380 83 56 168 117 191 137 109 94 170
332 133 519 l-12 57 -34 -55 c-44 -70 -93 -99 -203 -120 -184 -35 -224 -46
-299 -85 -94 -49 -225 -153 -279 -220 l-40 -50 -6 33 c-3 17 -10 71 -17 119
-10 83 -10 89 10 117 33 46 107 107 159 131 26 13 97 37 157 55 219 65 285
103 419 239 181 185 185 195 149 369 -14 67 -26 123 -27 124 -1 2 -27 -21 -57
-51 -70 -67 -109 -80 -309 -107 -201 -26 -319 -67 -477 -164 l-43 -26 0 41 c0
36 7 48 49 93 88 93 204 150 561 277 215 76 279 109 350 180 45 44 65 76 104
165 27 61 59 124 72 141 19 26 21 34 10 43 -10 8 -28 4 -72 -19 -109 -55 -194
-61 -459 -30 -219 25 -335 26 -414 1 -34 -10 -61 -18 -61 -17 0 0 11 37 23 81
l23 80 55 27 c68 34 164 58 255 65 54 4 102 -1 205 -22 222 -45 312 -28 449
87 72 60 177 188 220 270 24 44 34 79 38 126 l5 66 -29 -22 c-134 -103 -200
-126 -329 -119 -119 6 -166 26 -345 143 -86 56 -194 104 -235 104 -8 0 -15 3
-15 6 0 4 23 56 52 116 40 85 57 110 75 114 48 12 137 -17 301 -98 l166 -83
111 0 c108 0 113 1 187 37 132 66 234 196 342 436 25 57 46 107 46 112 0 22
-32 16 -58 -10 -39 -39 -95 -52 -226 -51 -112 0 -190 12 -391 57 -62 15 -144
26 -187 27 -43 0 -78 3 -78 6 0 3 31 55 68 116 62 101 70 110 106 119 57 13
127 -7 230 -65 118 -67 154 -79 242 -79 206 0 441 175 571 425 35 69 90 235
77 235 -3 0 -30 -19 -61 -42 -168 -123 -281 -142 -521 -83 -141 34 -197 39
-259 22 -35 -9 -50 -10 -45 -3 64 100 103 133 201 168 47 17 92 22 286 28 214
6 236 9 310 34 171 58 300 157 357 274 30 60 33 75 33 154 -1 102 -12 123 -47
91 -69 -64 -182 -96 -398 -113 -120 -10 -162 -16 -235 -37 -18 -5 -17 -3 5 22
48 51 156 133 365 275 248 168 335 238 410 326 94 111 135 215 135 341 0 40
-3 72 -7 72 -5 -1 -28 -21 -52 -45z"/>
<path d="M6235 10890 l-98 -198 -101 -7 c-937 -64 -1873 -485 -2554 -1149
-371 -361 -708 -863 -902 -1343 l-33 -82 -61 -10 c-34 -5 -115 -18 -182 -27
l-120 -18 -12 -38 -12 -38 130 -128 130 -127 -20 -70 c-31 -109 -80 -356 -102
-515 -25 -188 -35 -612 -19 -800 69 -798 351 -1535 825 -2160 186 -246 507
-572 713 -724 0 0 -12 -80 -28 -176 -16 -96 -29 -182 -29 -191 0 -8 13 -25 30
-37 l30 -22 172 91 173 90 30 -17 c17 -9 77 -44 135 -77 451 -259 995 -435
1560 -504 203 -25 657 -25 860 0 614 76 1162 262 1673 569 l139 84 201 -102
201 -102 27 21 c15 12 28 28 28 36 1 8 -15 109 -35 224 l-36 210 29 27 c15 15
68 65 118 111 563 527 972 1230 1159 1989 90 364 110 542 111 960 0 401 -14
538 -92 888 l-25 113 175 169 175 170 -13 37 -13 38 -237 37 c-130 20 -241 40
-245 45 -4 4 -29 58 -55 118 -339 792 -936 1463 -1685 1892 -492 282 -1065
470 -1595 523 -66 7 -126 14 -132 16 -7 2 -57 93 -112 202 l-100 199 -39 0
-39 0 -98 -197z"/>
</g>
</svg>
